<?xml version="1.0" encoding="UTF-8" standalone="no"?><!DOCTYPE svg PUBLIC "-//W3C//DTD SVG 1.1//EN" "http://www.w3.org/Graphics/SVG/1.1/DTD/svg11.dtd"><svg width="100%" height="100%" viewBox="0 0 24 24" version="1.1" xmlns="http://www.w3.org/2000/svg" xmlns:xlink="http://www.w3.org/1999/xlink" xml:space="preserve" xmlns:serif="http://www.serif.com/" style="fill-rule:evenodd;clip-rule:evenodd;stroke-linejoin:round;stroke-miterlimit:2;"><g id="Icon"><path d="M10.75,2.5c0,-0.331 -0.132,-0.649 -0.366,-0.884c-0.235,-0.234 -0.552,-0.366 -0.884,-0.366l-7,0c-0.332,0 -0.649,0.132 -0.884,0.366c-0.234,0.235 -0.366,0.553 -0.366,0.884c-0,0.769 -0,2.231 -0,3c-0,0.331 0.132,0.649 0.366,0.884c0.235,0.234 0.552,0.366 0.884,0.366l7,-0c0.332,-0 0.649,-0.132 0.884,-0.366c0.234,-0.235 0.366,-0.553 0.366,-0.884l-0,-3Zm-8,0.25l-0,2.5l6.5,0l0,-2.5l-6.5,-0Z"/><path d="M22.75,18.5c0,-0.331 -0.132,-0.649 -0.366,-0.884c-0.235,-0.234 -0.552,-0.366 -0.884,-0.366l-7,0c-0.332,0 -0.649,0.132 -0.884,0.366c-0.234,0.235 -0.366,0.553 -0.366,0.884c0,0.769 0,2.231 0,3c-0,0.331 0.132,0.649 0.366,0.884c0.235,0.234 0.552,0.366 0.884,0.366l7,0c0.332,-0 0.649,-0.132 0.884,-0.366c0.234,-0.235 0.366,-0.553 0.366,-0.884l-0,-3Zm-8,0.25l-0,2.5l6.5,0l0,-2.5l-6.5,0Z"/><path d="M10.03,22.03l1.5,-1.5c0.293,-0.293 0.293,-0.767 0,-1.06l-1.5,-1.5c-0.292,-0.293 -0.768,-0.293 -1.06,-0c-0.293,0.292 -0.293,0.768 -0,1.06l0.969,0.97c0,0 -0.969,0.97 -0.969,0.97c-0.293,0.292 -0.293,0.768 -0,1.06c0.292,0.293 0.768,0.293 1.06,0Z"/><path d="M13.28,12.97l-0.969,-0.97c-0,-0 0.969,-0.97 0.969,-0.97c0.293,-0.292 0.293,-0.768 0,-1.06c-0.292,-0.293 -0.768,-0.293 -1.06,-0l-1.5,1.5c-0.293,0.293 -0.293,0.767 -0,1.06l1.5,1.5c0.292,0.293 0.768,0.293 1.06,0c0.293,-0.292 0.293,-0.768 0,-1.06Z"/><path d="M20.25,8c-0,1.795 -1.455,3.25 -3.25,3.25c-0,-0 -2.477,0 -2.477,0c-0.414,0 -0.75,0.336 -0.75,0.75c0,0.414 0.336,0.75 0.75,0.75c0,0 1.148,0 2.477,-0c2.623,-0 4.75,-2.127 4.75,-4.75c-0,0 0,-0 0,-0c0,-1.26 -0.5,-2.468 -1.391,-3.359c-0.891,-0.891 -2.099,-1.391 -3.359,-1.391l-5,-0c-0.414,0 -0.75,0.336 -0.75,0.75c0,0.414 0.336,0.75 0.75,0.75l5,0c0.862,-0 1.689,0.342 2.298,0.952c0.61,0.609 0.952,1.436 0.952,2.298l0,0Z"/><path d="M9.023,11.25l-2.023,0c-1.26,-0 -2.468,0.5 -3.359,1.391c-0.891,0.891 -1.391,2.099 -1.391,3.359c0,2.623 2.127,4.75 4.75,4.75c0.414,0 0.75,-0.336 0.75,-0.75c-0,-0.414 -0.336,-0.75 -0.75,-0.75c-1.795,-0 -3.25,-1.455 -3.25,-3.25c-0,-0.862 0.342,-1.689 0.952,-2.298c0.609,-0.61 1.436,-0.952 2.298,-0.952c1.113,0 2.023,0 2.023,0c0.414,0 0.75,-0.336 0.75,-0.75c0,-0.414 -0.336,-0.75 -0.75,-0.75Z"/></g></svg>