<?xml version="1.0" encoding="UTF-8" standalone="no"?> <svg id="icon" xmlns="http://www.w3.org/2000/svg" viewBox="0 0 512 512"><title>support</title><path d="M330.655,362.054a5.363,5.363,0,0,0-7.365-1.8L296.655,376.41a5.362,5.362,0,0,0-1.582,7.7l16.737,23.46c-6.253,7.236-24.642,26.268-55.809,40.582C224.95,433.885,206.476,414.8,200.2,407.56l16.733-23.453a5.36,5.36,0,0,0-1.582-7.7l-26.635-16.158a5.361,5.361,0,0,0-5.562,9.166l21.7,13.163-15.764,22.093a5.362,5.362,0,0,0,.048,6.294c.861,1.168,21.594,28.843,64.695,47.962a5.354,5.354,0,0,0,4.347,0c43.1-19.119,63.833-46.794,64.694-47.962a5.362,5.362,0,0,0,.048-6.294l-15.762-22.093,21.7-13.163A5.361,5.361,0,0,0,330.655,362.054Z"/><path d="M107.7,470.072a5.361,5.361,0,0,0,5.361,5.361H398.936a5.361,5.361,0,0,0,5.361-5.361V460.1a145.738,145.738,0,0,0-70.922-125.133,5.361,5.361,0,1,0-5.515,9.195A135.89,135.89,0,0,1,393.576,460.1v4.612H118.424V460.1A135.176,135.176,0,0,1,188.7,341.546a5.36,5.36,0,1,0-5.151-9.4A145.891,145.891,0,0,0,107.7,460.1Z"/><path d="M256,36.567A108.809,108.809,0,0,0,147.314,145.253V249.88a29.853,29.853,0,0,0,29.82,29.819h13.375a5.361,5.361,0,1,0,0-10.721H177.134a19.119,19.119,0,0,1-19.1-19.1V145.253a97.965,97.965,0,0,1,195.843-4.15,5.36,5.36,0,1,0,10.711-.445A108.388,108.388,0,0,0,256,36.567Z"/><path d="M364.686,185.052V176.68a23.935,23.935,0,0,0-23.907-23.908H330.713a5.322,5.322,0,0,0-1.952-.38c-63.438,0-80.915-46.614-81.622-48.584a5.36,5.36,0,0,0-5.033-3.576h-.022a5.36,5.36,0,0,0-5.04,3.534c-14.822,40.934-48.325,48.439-49.727,48.735a5.36,5.36,0,0,0-4.289,5.252v46.4a75.572,75.572,0,0,0,37.163,65.033v37.584a12.464,12.464,0,0,1-2.616,7.619l-4.185,5.38a23.25,23.25,0,0,0-2.471,24.475L251.2,425.521a5.361,5.361,0,0,0,9.606,0l40.281-81.279a23.075,23.075,0,0,0,1.455-16.833,5.361,5.361,0,0,0-10.282,3.039,12.37,12.37,0,0,1-.78,9.033L256,411.067l-35.474-71.586a12.471,12.471,0,0,1,1.326-13.129l4.185-5.381a23.226,23.226,0,0,0,4.876-14.2V274.431a75.485,75.485,0,0,0,103.04-65.471h6.827A23.935,23.935,0,0,0,364.686,185.052ZM323.4,203.6v.552a64.808,64.808,0,0,1-92.695,58.52,5.247,5.247,0,0,0-6.689-3.714,64.822,64.822,0,0,1-30.266-54.806V161.822c9.794-3.17,33.9-13.7,48.733-43.531a90.334,90.334,0,0,0,13.562,17.186c12.077,11.989,33.4,26.167,67.355,27.53Zm30.564-18.547a13.2,13.2,0,0,1-13.185,13.186h-6.658V163.493h6.658a13.2,13.2,0,0,1,13.185,13.187Z"/><path d="M271.541,285.827h-5.729a19.214,19.214,0,0,0-19.192,19.192v6.507a5.361,5.361,0,0,0,5.36,5.361H300.5a49.345,49.345,0,0,0,49.289-49.29V234.721a5.361,5.361,0,1,0-10.721,0V267.6A38.612,38.612,0,0,1,300.5,306.166h-9.766v-1.147A19.214,19.214,0,0,0,271.541,285.827Zm8.471,20.339H257.341v-1.147a8.48,8.48,0,0,1,8.471-8.471h5.729a8.481,8.481,0,0,1,8.471,8.471Z"/></svg>