<?xml version="1.0" encoding="UTF-8"?>
<!DOCTYPE svg PUBLIC "-//W3C//DTD SVG 1.1//EN" "http://www.w3.org/Graphics/SVG/1.1/DTD/svg11.dtd">
<!-- Creator: CorelDRAW -->
<svg xmlns="http://www.w3.org/2000/svg" xml:space="preserve" width="1.99999in" height="1.99999in" version="1.1" style="shape-rendering:geometricPrecision; text-rendering:geometricPrecision; image-rendering:optimizeQuality; fill-rule:evenodd; clip-rule:evenodd"
viewBox="0 0 2000 2000"
 xmlns:xlink="http://www.w3.org/1999/xlink">
 <defs>
  <style type="text/css">
   <![CDATA[
    .fil0 {fill:none}
    .fil1 {fill:black}
   ]]>
  </style>
 </defs>
 <rect class="fil0" width="2000" height="2000"/>
 <g id="Layer_x0020_1">
  <metadata id="CorelCorpID_0Corel-Layer"/>
  <path class="fil1" d="M794 1398l-152 0c95,86 220,138 358,138 295,0 536,-240 536,-536 0,-296 -241,-536 -536,-536 -138,0 -263,52 -358,137l152 0c17,0 58,34 71,38l139 0c28,-97 173,-78 173,24 0,101 -140,122 -172,29l-147 0c-17,0 -59,-34 -72,-37l-196 0c-34,40 -62,85 -83,134l658 0c30,-95 173,-75 173,27 0,101 -143,121 -173,26l-678 0c-12,42 -20,86 -23,131l310 0c30,-94 173,-75 173,27 0,102 -143,121 -173,27l-310 0c3,45 11,89 23,131l678 0c30,-95 173,-75 173,26 0,102 -143,122 -173,27l-658 0c21,49 49,94 83,134l196 0c13,-3 55,-37 72,-37l143 0c30,-95 173,-75 173,27 0,101 -144,121 -173,26l-136 0c-13,4 -54,37 -71,37zm319 455l-226 0c-37,0 -67,-30 -67,-67l0 -62c-9,-2 -17,-5 -26,-7 -21,36 -35,75 -72,85 -17,5 -35,3 -51,-6l-196 -114c-32,-18 -43,-59 -24,-91l31 -54c-6,-7 -12,-13 -19,-19l-54 31c-32,19 -73,8 -92,-24l-113 -196c-18,-32 -7,-74 25,-92l54 -31c-2,-9 -5,-17 -7,-26l-62 0c-37,0 -67,-30 -67,-67l0 -226c0,-37 30,-67 67,-67l62 0c2,-9 5,-17 7,-26l-54 -31c-32,-19 -43,-60 -24,-92l113 -195c18,-33 59,-43 91,-25l55 31c6,-6 12,-12 18,-18 -21,-37 -48,-69 -38,-106 5,-17 16,-31 31,-40l196 -113c32,-19 74,-7 92,24l31 54c9,-2 17,-4 26,-6l0 -63c0,-37 30,-67 67,-67l226 0c37,0 67,30 67,67l0 62c9,2 17,5 26,7l31 -54c19,-32 60,-43 92,-25l196 113c32,19 43,60 24,92l-31 54c6,7 12,13 18,19 37,-21 69,-48 106,-38 17,5 32,16 40,31l113 196c19,32 8,74 -24,92l-54 31c2,9 4,17 7,26l62 0c37,0 67,30 67,67l0 226c0,37 -30,67 -67,67l-62 0c-2,9 -5,17 -7,26l54 31c32,19 43,60 25,92l-113 196c-19,31 -60,42 -92,24l-54 -31c-7,6 -13,12 -19,19 21,36 48,68 38,105 -5,17 -16,32 -31,40l-196 114c-32,18 -73,7 -92,-25l-31 -54c-9,2 -17,5 -26,7l0 62c0,37 -30,67 -67,67zm-331 -195c9,0 56,15 70,18 12,3 21,14 21,26l0 84c0,8 6,14 14,14l226 0c7,0 14,-6 14,-14 0,-127 -16,-95 83,-126 12,-4 25,1 31,12l42 72c5,8 12,10 19,5l196 -113c7,-4 9,-11 5,-19 -64,-110 -61,-75 9,-151 8,-9 22,-11 33,-5l73 42c7,4 14,2 18,-5l114 -196c4,-7 2,-15 -5,-19 -111,-64 -91,-33 -69,-135 3,-13 14,-21 27,-21l83 0c8,0 14,-7 14,-14l0 -226c0,-8 -6,-14 -14,-14 -127,0 -95,16 -126,-83 -4,-12 1,-25 12,-32l72 -41c8,-5 10,-12 5,-19l-113 -196c-4,-7 -11,-9 -18,-5 -111,64 -76,61 -152,-9 -9,-8 -11,-22 -5,-33l42 -73c4,-6 1,-15 -5,-19l-196 -113c-6,-3 -15,-1 -19,5 -64,111 -33,91 -135,68 -13,-2 -21,-13 -21,-26l0 -83c0,-8 -7,-14 -14,-14l-226 0c-8,0 -14,6 -14,14 0,127 16,95 -83,126 -12,4 -25,-1 -31,-12l-42 -72c-5,-8 -12,-10 -19,-5l-196 113c-7,4 -9,11 -5,18 64,111 60,76 -9,152 -8,9 -22,11 -33,5l-73 -42c-6,-4 -15,-1 -19,5l-113 196c-3,6 -1,15 5,19 111,64 90,33 68,135 -2,13 -13,21 -26,21l-83 0c-8,0 -14,7 -14,14l0 226c0,8 6,14 14,14 127,0 95,-15 126,84 4,12 -1,25 -12,31l-72 42c-8,4 -10,11 -5,18l113 196c4,8 11,10 18,5 111,-64 76,-60 152,9 9,9 11,23 5,33l-42 73c-4,7 -1,15 5,19l196 113c7,4 15,2 19,-5l42 -73c4,-9 13,-14 23,-14zm-338 -463c-45,-114 -45,-276 0,-390 82,-234 304,-394 556,-394 325,0 589,264 589,589 0,325 -264,589 -589,589 -252,0 -474,-160 -556,-394zm645 -567c-46,0 -46,71 0,71 46,0 46,-71 0,-71zm161 152c-46,0 -46,71 0,71 46,0 46,-71 0,-71zm-392 185c-46,0 -46,70 0,70 46,0 46,-70 0,-70zm392 184c-46,0 -46,71 0,71 46,0 46,-71 0,-71zm-200 185c-1,47 70,47 70,0 0,-46 -70,-46 -70,0z"/>
 </g>
</svg>
